<svg xmlns="http://www.w3.org/2000/svg" viewBox="0 0 64 64" aria-labelledby="title"
aria-describedby="desc" role="img" xmlns:xlink="http://www.w3.org/1999/xlink">
  <title>Brain</title>
  <desc>A flat styled icon from Orion Icon Library.</desc>
  <path data-name="layer2"
  d="M42 3c-6.716-1.679-9.2.165-9.829.8a.237.237 0 0 1-.171.074v56.379a.24.24 0 0 1 .192.1C32.622 60.923 33.968 62 38 62c5.5 0 22-4.548 22-26S50.051 5.013 42 3z"
  fill="#f2869f"></path>
  <path data-name="layer1" d="M53.947 12.106q-.6-.9-1.23-1.707a8.2 8.2 0 0 0-5.728 7.49 8.977 8.977 0 0 0-2.158.125 1 1 0 0 0 .34 1.971 4.447 4.447 0 0 1 3.609.582A3.74 3.74 0 0 1 50 23.043 1 1 0 0 0 51 24h.038A1 1 0 0 0 52 22.963a5.742 5.742 0 0 0-1.946-3.937 4.84 4.84 0 0 0-1.1-.669 6.337 6.337 0 0 1 4.993-6.251zm5.795 18.121a9.329 9.329 0 0 0-7.227-1.74 9.158 9.158 0 0 0-7.215 5.984 6.92 6.92 0 0 0-5.1 2.93 1 1 0 1 0 1.6 1.2 4.783 4.783 0 0 1 4.261-2.129 5.142 5.142 0 0 1 4.045 2.977 1 1 0 1 0 1.789-.895 7.289 7.289 0 0 0-4.55-3.864 7.389 7.389 0 0 1 12.591-1.44 58.964 58.964 0 0 0-.194-3.023zM39 34a5.733 5.733 0 0 1 1.9-4.6l.034-.031A6.381 6.381 0 0 1 45 28a1 1 0 0 0 0-2 8.585 8.585 0 0 0-4.523 1.27c-1.823-2.342-5.6-3.017-8.477-2.536v2.044c2.468-.547 5.652.057 6.938 1.771A7.864 7.864 0 0 0 37 34a1 1 0 0 0 2 0zm-.445-11.168a1 1 0 0 0 .277-1.387 6.158 6.158 0 0 1-.54-5.17 3.473 3.473 0 0 1 2.024-2.327 1 1 0 0 0-.633-1.9 5.4 5.4 0 0 0-3.283 3.578 8.03 8.03 0 0 0-.267 1.007A10.786 10.786 0 0 0 32 16.7v2.047a8.854 8.854 0 0 1 3.978-.1 7.635 7.635 0 0 0 1.19 3.911 1 1 0 0 0 1.387.277zM56.9 49.967c-3.3-.347-6.444-2.959-6.977-5.089a9.385 9.385 0 0 1 3.883.1 1 1 0 0 0 .394-1.958c-2.909-.581-5.2-.313-6.812.8a5.808 5.808 0 0 0-2.37 4.018 1 1 0 0 0 .821 1.151A.956.956 0 0 0 46 49a1 1 0 0 0 .985-.835 4.137 4.137 0 0 1 1.132-2.35c.95 2.727 4.211 5.31 7.693 6.008q.576-.88 1.09-1.856zM44.02 60.861a11.336 11.336 0 0 0 .039-10.029c-1.537-3.128-4.187-4.983-7.1-5.079.025-.122.041-.245.074-.366a4.688 4.688 0 0 1 3.213-3.417 1 1 0 0 0-.484-1.939 6.681 6.681 0 0 0-4.662 4.822 8.007 8.007 0 0 0 2.191 7.855 1 1 0 0 0 1.414-1.414 6.31 6.31 0 0 1-1.824-3.54c2.539.073 4.426 2.016 5.382 3.962a9.156 9.156 0 0 1-1.163 9.937 22.992 22.992 0 0 0 2.92-.792zm-1.265-50.049a1 1 0 1 0 1.836-.795 4.989 4.989 0 0 0-3.475-2.877 4.13 4.13 0 0 1 2.929-3.473A16.176 16.176 0 0 0 42 3c-.23-.058-.441-.1-.661-.15a7.088 7.088 0 0 0-2.251 4.24 5 5 0 0 0-2.839 1.6 1 1 0 1 0 1.5 1.322 3 3 0 0 1 5.006.795z"
  fill="#e06c8b"></path>
  <path data-name="layer2" d="M22 3c6.716-1.679 9.2.165 9.829.8a.237.237 0 0 0 .171.074v56.379a.24.24 0 0 0-.192.1C31.378 60.923 30.032 62 26 62c-5.5 0-22-4.548-22-26S13.949 5.013 22 3z"
  fill="#f2869f"></path>
  <path data-name="layer1" d="M10.053 12.106q.6-.9 1.23-1.707a8.2 8.2 0 0 1 5.728 7.49 8.977 8.977 0 0 1 2.158.125 1 1 0 0 1-.34 1.971 4.447 4.447 0 0 0-3.609.582A3.74 3.74 0 0 0 14 23.043 1 1 0 0 1 13 24h-.038A1 1 0 0 1 12 22.963a5.742 5.742 0 0 1 1.946-3.937 4.842 4.842 0 0 1 1.1-.669 6.337 6.337 0 0 0-4.993-6.251zM4.258 30.227a9.329 9.329 0 0 1 7.227-1.74 9.158 9.158 0 0 1 7.215 5.984 6.92 6.92 0 0 1 5.1 2.93 1 1 0 1 1-1.6 1.2 4.783 4.783 0 0 0-4.261-2.129 5.142 5.142 0 0 0-4.045 2.977 1 1 0 1 1-1.789-.895 7.289 7.289 0 0 1 4.55-3.864 7.2 7.2 0 0 0-5.5-4.229 7.21 7.21 0 0 0-7.092 2.789 60.1 60.1 0 0 1 .195-3.023zM25 34a5.733 5.733 0 0 0-1.9-4.6l-.034-.031A6.381 6.381 0 0 0 19 28a1 1 0 0 1 0-2 8.585 8.585 0 0 1 4.522 1.27c1.823-2.342 5.6-3.017 8.478-2.536v2.044c-2.468-.547-5.652.057-6.939 1.771A7.864 7.864 0 0 1 27 34a1 1 0 0 1-2 0zm.445-11.168a1 1 0 0 1-.277-1.387 6.158 6.158 0 0 0 .54-5.17 3.473 3.473 0 0 0-2.024-2.327 1 1 0 0 1 .633-1.9 5.4 5.4 0 0 1 3.283 3.578 8.03 8.03 0 0 1 .267 1.007A10.786 10.786 0 0 1 32 16.7v2.047a8.854 8.854 0 0 0-3.979-.1 7.635 7.635 0 0 1-1.189 3.911 1 1 0 0 1-1.387.277zM7.1 49.967c3.3-.347 6.444-2.959 6.977-5.089a9.385 9.385 0 0 0-3.883.1A1 1 0 0 1 9.8 43.02c2.909-.581 5.2-.313 6.812.8a5.808 5.808 0 0 1 2.37 4.018 1 1 0 0 1-.821 1.151A.956.956 0 0 1 18 49a1 1 0 0 1-.985-.835 4.137 4.137 0 0 0-1.132-2.35c-.95 2.727-4.211 5.31-7.693 6.008q-.576-.88-1.09-1.856zm12.879 10.894a11.336 11.336 0 0 1-.039-10.029c1.537-3.128 4.187-4.983 7.1-5.079-.025-.122-.041-.245-.074-.366a4.688 4.688 0 0 0-3.213-3.417 1 1 0 0 1 .484-1.939 6.681 6.681 0 0 1 4.663 4.822 8.007 8.007 0 0 1-2.191 7.855 1 1 0 0 1-1.414-1.414 6.31 6.31 0 0 0 1.824-3.54c-2.539.073-4.426 2.016-5.382 3.962a9.156 9.156 0 0 0 1.163 9.937 22.992 22.992 0 0 1-2.921-.792zm1.266-50.049a1 1 0 1 1-1.836-.795 4.989 4.989 0 0 1 3.475-2.877 4.13 4.13 0 0 0-2.929-3.473A16.175 16.175 0 0 1 22 3c.229-.058.441-.1.661-.15a7.088 7.088 0 0 1 2.251 4.24 5 5 0 0 1 2.839 1.6 1 1 0 0 1-1.5 1.322 3 3 0 0 0-5.006.795z"
  fill="#e06c8b"></path>
  <path data-name="opacity" d="M22 3c6.716-1.679 9.2.165 9.829.8a.237.237 0 0 0 .171.074v56.379a.24.24 0 0 0-.192.1C31.378 60.923 30.032 62 26 62c-5.5 0-22-4.548-22-26S13.949 5.013 22 3z"
  fill="#000064" opacity=".15"></path>
</svg>